HIERARCHY
ROOT Hips
{
	OFFSET -3.958830 18.904000 13.208200
	CHANNELS 6 Xposition Yposition Zposition Zrotation Yrotation Xrotation 
	JOINT LHipJoint
	{
		OFFSET 0.000000 0.000000 0.000000
		CHANNELS 3 Zrotation Yrotation Xrotation
		JOINT LeftUpLeg
		{
			OFFSET 1.800000 -1.400000 0.085000
			CHANNELS 3 Zrotation Yrotation Xrotation
			JOINT LeftLeg
			{
				OFFSET 2.215000 -6.000000 0.000000
				CHANNELS 3 Zrotation Yrotation Xrotation
				JOINT LeftFoot
				{
					OFFSET 2.500000 -6.900000 0.000000
					CHANNELS 3 Zrotation Yrotation Xrotation
					JOINT LeftToeBase
					{
						OFFSET 0.200000 -0.500000 1.950000
						CHANNELS 3 Zrotation Yrotation Xrotation
						End Site
						{
							OFFSET 0.000000 0.000000 0.000000
						}
					}
				}
			}
		}
	}
	JOINT RHipJoint
	{
		OFFSET 0.000000 0.000000 0.000000
		CHANNELS 3 Zrotation Yrotation Xrotation
		JOINT RightUpLeg
		{
			OFFSET -1.800000 -1.400000 0.085000
			CHANNELS 3 Zrotation Yrotation Xrotation
			JOINT RightLeg
			{
				OFFSET -2.215000 -6.000000 0.000000
				CHANNELS 3 Zrotation Yrotation Xrotation
				JOINT RightFoot
				{
					OFFSET -2.500000 -6.900000 0.000000
					CHANNELS 3 Zrotation Yrotation Xrotation
					JOINT RightToeBase
					{
						OFFSET -0.200000 -0.500000 1.950000
						CHANNELS 3 Zrotation Yrotation Xrotation
						End Site
						{
							OFFSET 0.000000 0.000000 0.000000
						}
					}
				}
			}
		}
	}
	JOINT LowerBack
	{
		OFFSET 0.000000 0.000000 0.000000
		CHANNELS 3 Zrotation Yrotation Xrotation
		JOINT Spine
		{
			OFFSET -0.087000 1.940000 -0.288900
			CHANNELS 3 Zrotation Yrotation Xrotation
			JOINT Spine1
			{
				OFFSET 0.000000 1.950000 0.060000
				CHANNELS 3 Zrotation Yrotation Xrotation
				JOINT Neck
				{
					OFFSET 0.000000 0.000000 0.000000
					CHANNELS 3 Zrotation Yrotation Xrotation
					JOINT Neck1
					{
						OFFSET 0.000000 1.600000 0.340000
						CHANNELS 3 Zrotation Yrotation Xrotation
						JOINT Head
						{
							OFFSET 0.000000 1.667000 -0.240000
							CHANNELS 3 Zrotation Yrotation Xrotation
							End Site
							{
								OFFSET 0.000000 0.000000 0.000000
							}
						}
					}
				}
				JOINT LeftShoulder
				{
					OFFSET 0.000000 0.000000 0.000000
					CHANNELS 3 Zrotation Yrotation Xrotation
					JOINT LeftArm
					{
						OFFSET 2.700000 1.550000 -0.730000
						CHANNELS 3 Zrotation Yrotation Xrotation
						JOINT LeftForeArm
						{
							OFFSET 5.450000 0.000000 0.000000
							CHANNELS 3 Zrotation Yrotation Xrotation
							JOINT LeftHand
							{
								OFFSET 3.450000 0.000000 0.000000
								CHANNELS 3 Zrotation Yrotation Xrotation
								JOINT LeftHandIndex1
								{
									OFFSET 0.750000 0.000000 0.000000
									CHANNELS 3 Zrotation Yrotation Xrotation
									End Site
									{
										OFFSET 0.000000 0.000000 0.000000
									}
								}
							}
						}
					}
				}
				JOINT RightShoulder
				{
					OFFSET 0.000000 0.000000 0.000000
					CHANNELS 3 Zrotation Yrotation Xrotation
					JOINT RightArm
					{
						OFFSET -2.700000 1.550000 -0.730000
						CHANNELS 3 Zrotation Yrotation Xrotation
						JOINT RightForeArm
						{
							OFFSET -5.450000 0.000000 0.000000
							CHANNELS 3 Zrotation Yrotation Xrotation
							JOINT RightHand
							{
								OFFSET -3.450000 0.000000 0.000000
								CHANNELS 3 Zrotation Yrotation Xrotation
								JOINT RightHandIndex1
								{
									OFFSET -0.750000 0.000000 0.000000
									CHANNELS 3 Zrotation Yrotation Xrotation
									End Site
									{
										OFFSET 0.000000 0.000000 0.000000
									}
								}
							}
						}
					}
				}
			}
		}
	}
}
MOTION
Frames: 4
Frame Time: 0.016667
1.345970 16.553450 5.873310 -0.097632 20.158774 -5.352100 -14.770713 12.370851 1.833425 19.064796 1.252611 -10.390500 -3.496904 6.236375 14.138857 -0.087238 4.434876 2.983543 0.038190 -0.094010 0.073050 18.600397 -12.171545 2.634343 -35.766106 0.099647 -6.518156 14.136286 -13.750827 27.382675 -0.598231 -7.480794 1.476898 -0.017480 0.191670 0.260070 -5.106567 2.104517 -7.175671 10.242170 2.449251 1.346253 -12.496852 2.897223 14.602670 7.867495 7.546012 -15.896243 19.496779 -9.659509 56.131156 -4.893090 -2.633170 8.331280 -26.750454 -27.156644 12.364636 -44.952078 -7.043380 3.646189 -0.354433 8.662136 0.067887 -4.056008 2.936776 0.091460 0.206110 0.014880 0.058460 11.522802 26.763892 7.719183 63.713555 36.592816 16.075635 12.641945 21.965896 2.157790 2.499925 -1.432737 -0.035960 0.015920 0.056210 -0.004060 
1.322980 16.558780 5.881280 -0.820345 19.292833 -5.513466 -14.832905 12.428830 1.866451 19.827706 1.222348 -10.372213 -3.249957 6.249392 14.173774 -0.073055 4.492612 2.957569 0.037620 -0.084290 0.074710 18.531134 -12.153009 2.570893 -34.642556 -0.056130 -7.034180 13.727401 -13.452884 27.477627 -0.577487 -7.365248 1.520258 -0.013430 0.196740 0.271240 -4.872015 1.982563 -7.131461 9.099174 2.550832 1.502738 -11.420598 2.904172 14.668500 7.810143 8.453606 -16.042814 21.174395 -9.943660 54.036561 -4.545390 -2.122450 8.047810 -25.384639 -28.184173 12.467666 -44.722956 -9.143956 4.314099 -0.978459 8.486625 0.030429 -4.080834 2.959023 0.076610 0.222490 0.015540 0.057950 10.346403 26.917475 7.942337 62.322176 34.922336 15.223229 7.790426 18.052761 1.081952 2.509294 -1.425029 -0.029370 0.005770 0.052550 -0.003420 
1.299570 16.567780 5.888880 -1.458791 18.374910 -5.472506 -14.893996 12.486573 1.893271 20.372645 1.115049 -10.465175 -2.923212 6.219918 14.296516 -0.063994 4.521434 2.942460 0.043220 -0.062310 0.069430 18.463506 -12.156609 2.493908 -33.423186 -0.262616 -7.597534 13.028680 -13.018995 27.457927 -0.549347 -7.207971 1.579669 -0.000780 0.207480 0.283010 -4.642297 1.885506 -7.063048 7.856816 2.785234 1.601659 -10.270611 3.022067 14.698398 7.709314 9.353834 -16.065443 22.632792 -9.991182 51.167195 -3.848320 -1.811670 7.345890 -23.412960 -29.106007 12.398958 -44.826472 -11.619643 5.066963 -1.555775 8.115296 0.002695 -4.108678 2.989342 0.057730 0.239190 0.014960 0.064750 8.650087 26.870882 8.228932 61.398429 33.207022 14.682090 3.907257 13.553741 0.426121 2.531634 -1.450560 -0.021000 -0.001060 0.046690 0.003560 
1.278500 16.573930 5.895750 -2.132034 17.457201 -5.269479 -14.951186 12.528055 1.928093 20.982062 0.934463 -10.742586 -2.667819 6.209634 14.516102 -0.077231 4.567377 2.916278 0.062940 -0.028310 0.074570 18.405014 -12.137568 2.429443 -32.279148 -0.503999 -8.256542 12.504777 -12.621422 27.245152 -0.526570 -7.047135 1.636905 0.025130 0.216330 0.298290 -4.432660 1.774405 -7.005724 6.743884 3.061022 1.748032 -9.095549 3.170461 14.694566 7.592037 10.198688 -15.968412 23.630400 -9.677253 47.453012 -3.181190 -1.435580 5.774820 -21.224784 -29.912031 12.129493 -45.024061 -14.422267 5.913622 -1.870858 7.587716 -0.023429 -4.141588 3.015689 0.051080 0.254760 0.017110 0.071870 6.720456 26.643821 8.550939 60.619419 31.301375 14.193934 1.550833 8.951888 0.214353 2.553193 -1.491726 -0.018100 -0.001520 0.041000 0.002780 
